<svg id="_056-add" data-name="056-add" xmlns="http://www.w3.org/2000/svg" width="78.661" height="78.661" viewBox="0 0 78.661 78.661">
  <g id="Grupo_259" data-name="Grupo 259">
    <g id="Grupo_258" data-name="Grupo 258">
      <path id="Caminho_139" data-name="Caminho 139" d="M39.33,0a39.33,39.33,0,1,0,39.33,39.33A39.373,39.373,0,0,0,39.33,0Zm0,72.568A33.237,33.237,0,1,1,72.568,39.33,33.276,33.276,0,0,1,39.33,72.568Z" fill="#fff"/>
    </g>
  </g>
  <g id="Grupo_261" data-name="Grupo 261" transform="translate(21.051 20.777)">
    <g id="Grupo_260" data-name="Grupo 260">
      <path id="Caminho_140" data-name="Caminho 140" d="M170.534,150.47H158.348V138.285a3.047,3.047,0,0,0-6.093,0V150.47H140.069a3.047,3.047,0,0,0,0,6.093h12.186V168.75a3.047,3.047,0,0,0,6.093,0V156.564h12.186a3.047,3.047,0,0,0,0-6.093Z" transform="translate(-137.022 -135.238)" fill="#fff"/>
    </g>
  </g>
</svg>
