<svg id="_057-check" data-name="057-check" xmlns="http://www.w3.org/2000/svg" width="78.661" height="78.661" viewBox="0 0 78.661 78.661">
  <g id="Grupo_263" data-name="Grupo 263">
    <g id="Grupo_262" data-name="Grupo 262">
      <path id="Caminho_141" data-name="Caminho 141" d="M39.33,0a39.33,39.33,0,1,0,39.33,39.33A39.373,39.373,0,0,0,39.33,0Zm0,72.568A33.237,33.237,0,1,1,72.568,39.33,33.276,33.276,0,0,1,39.33,72.568Z" fill="#fff"/>
    </g>
  </g>
  <g id="Grupo_265" data-name="Grupo 265" transform="translate(20.292 24.862)">
    <g id="Grupo_264" data-name="Grupo 264">
      <path id="Caminho_142" data-name="Caminho 142" d="M169.162,162.614a3.048,3.048,0,0,0-4.3.207l-18.584,20.463-8.978-9.127a3.046,3.046,0,0,0-4.344,4.271l11.238,11.424a3.043,3.043,0,0,0,2.172.911.365.365,0,0,1,.058,0,3.048,3.048,0,0,0,2.2-1l20.75-22.849A3.048,3.048,0,0,0,169.162,162.614Z" transform="translate(-132.079 -161.824)" fill="#fff"/>
    </g>
  </g>
</svg>
