<svg id="add" xmlns="http://www.w3.org/2000/svg" width="34.745" height="34.745" viewBox="0 0 34.745 34.745">
  <g id="Grupo_259" data-name="Grupo 259">
    <g id="Grupo_258" data-name="Grupo 258">
      <path id="Caminho_139" data-name="Caminho 139" d="M17.373,0A17.373,17.373,0,1,0,34.745,17.373,17.392,17.392,0,0,0,17.373,0Zm0,32.054A14.681,14.681,0,1,1,32.054,17.373,14.7,14.7,0,0,1,17.373,32.054Z" fill="#fff"/>
    </g>
  </g>
  <g id="Grupo_261" data-name="Grupo 261" transform="translate(9.299 9.178)">
    <g id="Grupo_260" data-name="Grupo 260">
      <path id="Caminho_140" data-name="Caminho 140" d="M151.824,141.966h-5.383v-5.383a1.346,1.346,0,0,0-2.691,0v5.383h-5.383a1.346,1.346,0,1,0,0,2.691h5.383v5.383a1.346,1.346,0,0,0,2.691,0v-5.383h5.383a1.346,1.346,0,1,0,0-2.691Z" transform="translate(-137.022 -135.238)" fill="#fff"/>
    </g>
  </g>
</svg>
