<svg id="delete" xmlns="http://www.w3.org/2000/svg" width="54.015" height="54" viewBox="0 0 54.015 54">
  <g id="Grupo_232" data-name="Grupo 232" transform="translate(0 0)">
    <g id="Grupo_231" data-name="Grupo 231">
      <path id="Caminho_126" data-name="Caminho 126" d="M46.116,7.968a27,27,0,1,0,0,38.2A27.048,27.048,0,0,0,46.116,7.968ZM43.157,43.212a22.83,22.83,0,1,1,0-32.285A22.856,22.856,0,0,1,43.157,43.212Z" transform="translate(0 -0.07)" fill="#650000"/>
    </g>
  </g>
  <g id="Grupo_234" data-name="Grupo 234" transform="translate(17.643 17.38)">
    <g id="Grupo_233" data-name="Grupo 233">
      <path id="Caminho_127" data-name="Caminho 127" d="M185.623,180.217,179.7,174.3l5.924-5.915a2.093,2.093,0,0,0-2.959-2.961l-5.928,5.92-5.928-5.92a2.093,2.093,0,1,0-2.959,2.961l5.924,5.915-5.924,5.915a2.093,2.093,0,0,0,2.959,2.961l5.928-5.92,5.928,5.92a2.093,2.093,0,1,0,2.959-2.961Z" transform="translate(-167.236 -164.813)" fill="#650000"/>
    </g>
  </g>
</svg>
