<svg id="down" xmlns="http://www.w3.org/2000/svg" width="41.425" height="41.425" viewBox="0 0 41.425 41.425">
  <g id="Grupo_222" data-name="Grupo 222">
    <g id="Grupo_221" data-name="Grupo 221">
      <path id="Caminho_121" data-name="Caminho 121" d="M20.712,0A20.712,20.712,0,1,0,41.425,20.712,20.735,20.735,0,0,0,20.712,0Zm0,38.216a17.5,17.5,0,1,1,17.5-17.5A17.524,17.524,0,0,1,20.712,38.216Z" fill="#fff"/>
    </g>
  </g>
  <g id="Grupo_224" data-name="Grupo 224" transform="translate(11.02 15.769)">
    <g id="Grupo_223" data-name="Grupo 223">
      <path id="Caminho_122" data-name="Caminho 122" d="M154.981,195.547a1.605,1.605,0,0,0-2.262-.175l-6.9,6.883-6.883-6.883a1.6,1.6,0,0,0-2.262,2.262l8.022,8.022a1.6,1.6,0,0,0,2.262,0l8.022-8.022A1.6,1.6,0,0,0,154.981,195.547Z" transform="translate(-136.208 -194.905)" fill="#fff"/>
    </g>
  </g>
</svg>
