<svg id="save" xmlns="http://www.w3.org/2000/svg" width="35.356" height="35.356" viewBox="0 0 35.356 35.356">
  <g id="Grupo_263" data-name="Grupo 263">
    <g id="Grupo_262" data-name="Grupo 262">
      <path id="Caminho_141" data-name="Caminho 141" d="M17.678,0A17.678,17.678,0,1,0,35.356,17.678,17.7,17.7,0,0,0,17.678,0Zm0,32.617A14.939,14.939,0,1,1,32.617,17.678,14.957,14.957,0,0,1,17.678,32.617Z" fill="#fff"/>
    </g>
  </g>
  <g id="Grupo_265" data-name="Grupo 265" transform="translate(9.121 11.175)">
    <g id="Grupo_264" data-name="Grupo 264">
      <path id="Caminho_142" data-name="Caminho 142" d="M148.747,162.179a1.37,1.37,0,0,0-1.933.093l-8.353,9.2-4.035-4.1a1.369,1.369,0,0,0-1.953,1.92l5.051,5.135a1.368,1.368,0,0,0,.976.409h.026a1.37,1.37,0,0,0,.987-.449l9.326-10.27A1.37,1.37,0,0,0,148.747,162.179Z" transform="translate(-132.079 -161.824)" fill="#fff"/>
    </g>
  </g>
</svg>
