<svg xmlns="http://www.w3.org/2000/svg" width="53.571" height="50" viewBox="0 0 53.571 50">
  <g id="vault" transform="translate(0 0)">
    <path id="Caminho_143" data-name="Caminho 143" d="M37.5,50H28.571a1.785,1.785,0,0,1-1.786-1.786V46.138a22.114,22.114,0,0,1-7.143,0v2.077A1.785,1.785,0,0,1,17.857,50H8.928a1.785,1.785,0,0,1-1.786-1.786V39.937A23.194,23.194,0,0,1,23.214,0,22.846,22.846,0,0,1,33.229,2.287L38.622.128a1.786,1.786,0,0,1,2.414,2.009l-1.02,5.1a23.225,23.225,0,0,1,5.263,8.832h5.094a3.2,3.2,0,0,1,3.2,3.2v7.891a3.2,3.2,0,0,1-3.2,3.2h-5.1a23.124,23.124,0,0,1-5.991,9.579v8.278A1.785,1.785,0,0,1,37.5,50Zm-7.143-3.571h5.357V39.792a1.741,1.741,0,0,1,.461-1.847,19.592,19.592,0,0,0,6.033-9.821,1.784,1.784,0,0,1,1.728-1.337H50V19.644H43.94A1.786,1.786,0,0,1,42.211,18.3a19.655,19.655,0,0,0-5.375-9.2,1.783,1.783,0,0,1-.508-1.632l.56-2.8L33.808,5.9a1.793,1.793,0,0,1-1.5-.078,19.336,19.336,0,0,0-9.1-2.251,19.623,19.623,0,0,0-12.96,34.375,1.785,1.785,0,0,1,.49,1.97c-.009.025-.019.049-.03.073v6.439h5.357V43.941A1.784,1.784,0,0,1,18.3,42.213a19.141,19.141,0,0,0,9.821,0,1.784,1.784,0,0,1,2.232,1.728ZM50.374,19.643h0Zm0,0" fill="#fff"/>
    <path id="Caminho_144" data-name="Caminho 144" d="M152.607,105.974H138.321a1.786,1.786,0,1,1,0-3.571h14.285a1.786,1.786,0,1,1,0,3.571Zm0,0" transform="translate(-122.25 -91.687)" fill="#fff"/>
  </g>
</svg>
